          <svg
            width="18"
            height="18"
            viewBox="0 0 18 18"
            fill="none"
            xmlns="http://www.w3.org/2000/svg"
          >
            <path
              d="M1.50012 1.49994H2.80513C3.61513 1.49994 4.25262 2.19744 4.18512 2.99994L3.56262 10.4699C3.45762 11.6924 4.42512 12.7424 5.65512 12.7424H13.6426C14.7226 12.7424 15.6676 11.8574 15.7501 10.7849L16.1551 5.15994C16.2451 3.91494 15.3001 2.90244 14.0476 2.90244H4.36513"
              stroke="white"
              stroke-width="1.2"
              stroke-miterlimit="10"
              stroke-linecap="round"
              stroke-linejoin="round"
            />
            <path
              d="M12.1875 16.5C12.7053 16.5 13.125 16.0803 13.125 15.5625C13.125 15.0447 12.7053 14.625 12.1875 14.625C11.6697 14.625 11.25 15.0447 11.25 15.5625C11.25 16.0803 11.6697 16.5 12.1875 16.5Z"
              stroke="white"
              stroke-width="1.2"
              stroke-miterlimit="10"
              stroke-linecap="round"
              stroke-linejoin="round"
            />
            <path
              d="M6.18738 16.5C6.70514 16.5 7.12488 16.0803 7.12488 15.5625C7.12488 15.0447 6.70514 14.625 6.18738 14.625C5.66961 14.625 5.24988 15.0447 5.24988 15.5625C5.24988 16.0803 5.66961 16.5 6.18738 16.5Z"
              stroke="white"
              stroke-width="1.2"
              stroke-miterlimit="10"
              stroke-linecap="round"
              stroke-linejoin="round"
            />
            <path
              d="M6.75 5.99994H15.75"
              stroke="white"
              stroke-width="1.2"
              stroke-miterlimit="10"
              stroke-linecap="round"
              stroke-linejoin="round"
            />
          </svg>